<?xml version="1.0" encoding="UTF-8" standalone="no"?>
<svg width="30px" height="42px" viewBox="0 0 22 33" version="1.1" xmlns="http://www.w3.org/2000/svg" xmlns:xlink="http://www.w3.org/1999/xlink">
    <!-- Generator: Sketch 40.3 (33839) - http://www.bohemiancoding.com/sketch -->
    <title>icon home</title>
    <desc>Created with Sketch.</desc>
    <defs></defs>
    <g id="Symbols" stroke="none" stroke-width="1" fill="none" fill-rule="evenodd">
        <g id="Navigation/Home" transform="translate(-176.000000, -10.000000)" fill="#0C1639">
            <g id="Navigation">
                <g id="icon-home" transform="translate(174.000000, 10.000000)">
                    <path d="M18.001,18 C18.553,18 19,17.547 19,17.003 L19,10 L7,10 L7,17.003 C7,17.554 7.443,18 7.999,18 L10,18 L10,11.997 C10,11.446 10.451,11 10.991,11 L15.009,11 C15.556,11 16,11.453 16,11.997 L16,18 L18.001,18 L18.001,18 Z M7,10 L19,10 L21,12 L21,18.002 C21,19.106 20.105,20 19.006,20 L6.994,20 C5.893,20 5,19.113 5,18.002 L5,12 L7,10 L7,10 Z M12,13 L14,13 L14,18 L12,18 L12,13 L12,13 Z M12.215,0.628 C12.648,0.281 13.356,0.285 13.784,0.628 L22.215,7.373 C22.648,7.72 22.797,8.405 22.552,8.895 L22.447,9.106 C22.2,9.6 21.647,9.726 21.217,9.392 L13,3.001 L4.783,9.392 C4.351,9.728 3.798,9.596 3.553,9.106 L3.448,8.895 C3.201,8.401 3.357,7.716 3.785,7.373 L12.216,0.628 L12.215,0.628 Z" id="Shape"></path>
                    <text id="home" font-family="OpenSans, Open Sans" font-size="8" font-weight="normal" letter-spacing="-0.0857142881">
                        <tspan x="2.33549108" y="32">home</tspan>
                    </text>
                </g>
            </g>
        </g>
    </g>
</svg>
